<mxfile host="app.diagrams.net" agent="Mozilla/5.0 (Windows NT 10.0; Win64; x64) AppleWebKit/537.36 (KHTML, like Gecko) Chrome/131.0.0.0 Safari/537.36" version="25.0.1">
  <diagram name="Page-1" id="Jtq4YzRycPfMpUxVGck3">
    <mxGraphModel dx="989" dy="532" grid="1" gridSize="10" guides="1" tooltips="1" connect="1" arrows="1" fold="1" page="1" pageScale="1" pageWidth="850" pageHeight="1100" math="0" shadow="0">
      <root>
        <mxCell id="0" />
        <mxCell id="1" parent="0" />
        <mxCell id="49wvghhfvZrDiYYT6UEA-1" value="" style="rounded=0;whiteSpace=wrap;html=1;" vertex="1" parent="1">
          <mxGeometry x="190" y="90" width="590" height="707.5" as="geometry" />
        </mxCell>
        <mxCell id="49wvghhfvZrDiYYT6UEA-2" value="Student&lt;div&gt;&lt;br&gt;&lt;/div&gt;" style="shape=umlActor;verticalLabelPosition=bottom;verticalAlign=top;html=1;outlineConnect=0;" vertex="1" parent="1">
          <mxGeometry x="110" y="320" width="30" height="60" as="geometry" />
        </mxCell>
        <mxCell id="49wvghhfvZrDiYYT6UEA-3" value="&lt;font style=&quot;font-size: 20px;&quot;&gt;School Management System&lt;/font&gt;" style="text;strokeColor=none;align=center;fillColor=none;html=1;verticalAlign=middle;whiteSpace=wrap;rounded=0;" vertex="1" parent="1">
          <mxGeometry x="360" y="90" width="270" height="50" as="geometry" />
        </mxCell>
        <mxCell id="49wvghhfvZrDiYYT6UEA-7" value="View Profile" style="ellipse;whiteSpace=wrap;html=1;" vertex="1" parent="1">
          <mxGeometry x="280" y="160" width="95" height="35" as="geometry" />
        </mxCell>
        <mxCell id="49wvghhfvZrDiYYT6UEA-17" value="" style="group" vertex="1" connectable="0" parent="1">
          <mxGeometry x="425" y="140" width="105" height="30" as="geometry" />
        </mxCell>
        <mxCell id="49wvghhfvZrDiYYT6UEA-5" value="" style="ellipse;whiteSpace=wrap;html=1;" vertex="1" parent="49wvghhfvZrDiYYT6UEA-17">
          <mxGeometry width="105" height="30" as="geometry" />
        </mxCell>
        <mxCell id="49wvghhfvZrDiYYT6UEA-6" value="&lt;font style=&quot;font-size: 14px;&quot;&gt;Login&lt;/font&gt;" style="text;strokeColor=none;align=center;fillColor=none;html=1;verticalAlign=middle;whiteSpace=wrap;rounded=0;" vertex="1" parent="49wvghhfvZrDiYYT6UEA-17">
          <mxGeometry x="22.5" width="60" height="30" as="geometry" />
        </mxCell>
        <mxCell id="49wvghhfvZrDiYYT6UEA-21" value="Edit Profile" style="ellipse;whiteSpace=wrap;html=1;" vertex="1" parent="1">
          <mxGeometry x="435" y="180" width="95" height="35" as="geometry" />
        </mxCell>
        <mxCell id="49wvghhfvZrDiYYT6UEA-22" value="Reset Password" style="ellipse;whiteSpace=wrap;html=1;" vertex="1" parent="1">
          <mxGeometry x="420" y="220" width="95" height="35" as="geometry" />
        </mxCell>
        <mxCell id="49wvghhfvZrDiYYT6UEA-23" value="View Notices" style="ellipse;whiteSpace=wrap;html=1;" vertex="1" parent="1">
          <mxGeometry x="420" y="260" width="95" height="35" as="geometry" />
        </mxCell>
        <mxCell id="49wvghhfvZrDiYYT6UEA-24" value="View Attendance" style="ellipse;whiteSpace=wrap;html=1;" vertex="1" parent="1">
          <mxGeometry x="420" y="300" width="95" height="35" as="geometry" />
        </mxCell>
        <mxCell id="49wvghhfvZrDiYYT6UEA-25" value="View Fee Details" style="ellipse;whiteSpace=wrap;html=1;" vertex="1" parent="1">
          <mxGeometry x="420" y="340" width="95" height="35" as="geometry" />
        </mxCell>
        <mxCell id="49wvghhfvZrDiYYT6UEA-26" value="Pay Fees" style="ellipse;whiteSpace=wrap;html=1;" vertex="1" parent="1">
          <mxGeometry x="420" y="380" width="95" height="35" as="geometry" />
        </mxCell>
        <mxCell id="49wvghhfvZrDiYYT6UEA-27" value="Give Feedback" style="ellipse;whiteSpace=wrap;html=1;" vertex="1" parent="1">
          <mxGeometry x="420" y="420" width="95" height="35" as="geometry" />
        </mxCell>
        <mxCell id="49wvghhfvZrDiYYT6UEA-29" value="" style="endArrow=none;html=1;rounded=0;entryX=0;entryY=1;entryDx=0;entryDy=0;exitX=1;exitY=0.3333333333333333;exitDx=0;exitDy=0;exitPerimeter=0;" edge="1" parent="1" source="49wvghhfvZrDiYYT6UEA-2" target="49wvghhfvZrDiYYT6UEA-7">
          <mxGeometry width="50" height="50" relative="1" as="geometry">
            <mxPoint x="350" y="450" as="sourcePoint" />
            <mxPoint x="400" y="400" as="targetPoint" />
          </mxGeometry>
        </mxCell>
        <mxCell id="49wvghhfvZrDiYYT6UEA-30" value="" style="endArrow=none;html=1;rounded=0;entryX=0;entryY=1;entryDx=0;entryDy=0;" edge="1" parent="1" target="49wvghhfvZrDiYYT6UEA-5">
          <mxGeometry width="50" height="50" relative="1" as="geometry">
            <mxPoint x="140" y="340" as="sourcePoint" />
            <mxPoint x="350" y="215" as="targetPoint" />
          </mxGeometry>
        </mxCell>
        <mxCell id="49wvghhfvZrDiYYT6UEA-31" value="" style="endArrow=none;html=1;rounded=0;entryX=0;entryY=0.5;entryDx=0;entryDy=0;" edge="1" parent="1" target="49wvghhfvZrDiYYT6UEA-21">
          <mxGeometry width="50" height="50" relative="1" as="geometry">
            <mxPoint x="140" y="340" as="sourcePoint" />
            <mxPoint x="450" y="175" as="targetPoint" />
          </mxGeometry>
        </mxCell>
        <mxCell id="49wvghhfvZrDiYYT6UEA-32" value="" style="endArrow=none;html=1;rounded=0;entryX=0;entryY=0.5;entryDx=0;entryDy=0;" edge="1" parent="1" target="49wvghhfvZrDiYYT6UEA-22">
          <mxGeometry width="50" height="50" relative="1" as="geometry">
            <mxPoint x="140" y="340" as="sourcePoint" />
            <mxPoint x="460" y="185" as="targetPoint" />
          </mxGeometry>
        </mxCell>
        <mxCell id="49wvghhfvZrDiYYT6UEA-33" value="" style="endArrow=none;html=1;rounded=0;entryX=0;entryY=0.5;entryDx=0;entryDy=0;" edge="1" parent="1" target="49wvghhfvZrDiYYT6UEA-23">
          <mxGeometry width="50" height="50" relative="1" as="geometry">
            <mxPoint x="140" y="340" as="sourcePoint" />
            <mxPoint x="470" y="195" as="targetPoint" />
          </mxGeometry>
        </mxCell>
        <mxCell id="49wvghhfvZrDiYYT6UEA-34" value="" style="endArrow=none;html=1;rounded=0;entryX=0;entryY=0.5;entryDx=0;entryDy=0;" edge="1" parent="1" target="49wvghhfvZrDiYYT6UEA-24">
          <mxGeometry width="50" height="50" relative="1" as="geometry">
            <mxPoint x="140" y="340" as="sourcePoint" />
            <mxPoint x="480" y="205" as="targetPoint" />
          </mxGeometry>
        </mxCell>
        <mxCell id="49wvghhfvZrDiYYT6UEA-35" value="" style="endArrow=none;html=1;rounded=0;entryX=0;entryY=0.5;entryDx=0;entryDy=0;" edge="1" parent="1" target="49wvghhfvZrDiYYT6UEA-25">
          <mxGeometry width="50" height="50" relative="1" as="geometry">
            <mxPoint x="140" y="340" as="sourcePoint" />
            <mxPoint x="490" y="215" as="targetPoint" />
          </mxGeometry>
        </mxCell>
        <mxCell id="49wvghhfvZrDiYYT6UEA-36" value="" style="endArrow=none;html=1;rounded=0;exitX=0;exitY=0.5;exitDx=0;exitDy=0;" edge="1" parent="1" source="49wvghhfvZrDiYYT6UEA-26">
          <mxGeometry width="50" height="50" relative="1" as="geometry">
            <mxPoint x="200" y="400" as="sourcePoint" />
            <mxPoint x="140" y="340" as="targetPoint" />
          </mxGeometry>
        </mxCell>
        <mxCell id="49wvghhfvZrDiYYT6UEA-37" value="" style="endArrow=none;html=1;rounded=0;entryX=0.05;entryY=0.406;entryDx=0;entryDy=0;entryPerimeter=0;" edge="1" parent="1" target="49wvghhfvZrDiYYT6UEA-27">
          <mxGeometry width="50" height="50" relative="1" as="geometry">
            <mxPoint x="140" y="340" as="sourcePoint" />
            <mxPoint x="510" y="235" as="targetPoint" />
          </mxGeometry>
        </mxCell>
        <mxCell id="49wvghhfvZrDiYYT6UEA-38" value="View Timetable" style="ellipse;whiteSpace=wrap;html=1;" vertex="1" parent="1">
          <mxGeometry x="420" y="460" width="95" height="35" as="geometry" />
        </mxCell>
        <mxCell id="49wvghhfvZrDiYYT6UEA-39" value="View Homework" style="ellipse;whiteSpace=wrap;html=1;" vertex="1" parent="1">
          <mxGeometry x="420" y="500" width="95" height="35" as="geometry" />
        </mxCell>
        <mxCell id="49wvghhfvZrDiYYT6UEA-40" value="Download Assignments" style="ellipse;whiteSpace=wrap;html=1;" vertex="1" parent="1">
          <mxGeometry x="420" y="540" width="95" height="35" as="geometry" />
        </mxCell>
        <mxCell id="49wvghhfvZrDiYYT6UEA-41" value="Add Grivance" style="ellipse;whiteSpace=wrap;html=1;" vertex="1" parent="1">
          <mxGeometry x="420" y="580" width="95" height="35" as="geometry" />
        </mxCell>
        <mxCell id="49wvghhfvZrDiYYT6UEA-42" value="&lt;div&gt;Teacher&lt;/div&gt;" style="shape=umlActor;verticalLabelPosition=bottom;verticalAlign=top;html=1;outlineConnect=0;" vertex="1" parent="1">
          <mxGeometry x="810" y="270" width="30" height="60" as="geometry" />
        </mxCell>
        <mxCell id="49wvghhfvZrDiYYT6UEA-45" value="Upload Subject Materials" style="ellipse;whiteSpace=wrap;html=1;" vertex="1" parent="1">
          <mxGeometry x="600" y="140" width="95" height="35" as="geometry" />
        </mxCell>
        <mxCell id="49wvghhfvZrDiYYT6UEA-46" value="Mark Attandance" style="ellipse;whiteSpace=wrap;html=1;" vertex="1" parent="1">
          <mxGeometry x="600" y="185" width="95" height="35" as="geometry" />
        </mxCell>
        <mxCell id="49wvghhfvZrDiYYT6UEA-47" value="Publish Grade" style="ellipse;whiteSpace=wrap;html=1;" vertex="1" parent="1">
          <mxGeometry x="600" y="225" width="95" height="35" as="geometry" />
        </mxCell>
        <mxCell id="49wvghhfvZrDiYYT6UEA-48" value="View Feedback" style="ellipse;whiteSpace=wrap;html=1;" vertex="1" parent="1">
          <mxGeometry x="600" y="265" width="95" height="35" as="geometry" />
        </mxCell>
        <mxCell id="49wvghhfvZrDiYYT6UEA-49" value="Add Punishment" style="ellipse;whiteSpace=wrap;html=1;" vertex="1" parent="1">
          <mxGeometry x="600" y="305" width="95" height="35" as="geometry" />
        </mxCell>
        <mxCell id="49wvghhfvZrDiYYT6UEA-50" value="Apply Leave" style="ellipse;whiteSpace=wrap;html=1;" vertex="1" parent="1">
          <mxGeometry x="600" y="345" width="95" height="35" as="geometry" />
        </mxCell>
        <mxCell id="49wvghhfvZrDiYYT6UEA-51" value="View Student Performance" style="ellipse;whiteSpace=wrap;html=1;" vertex="1" parent="1">
          <mxGeometry x="600" y="385" width="95" height="35" as="geometry" />
        </mxCell>
        <mxCell id="49wvghhfvZrDiYYT6UEA-52" value="Comunicate With Parents" style="ellipse;whiteSpace=wrap;html=1;" vertex="1" parent="1">
          <mxGeometry x="600" y="425" width="90" height="35" as="geometry" />
        </mxCell>
        <mxCell id="49wvghhfvZrDiYYT6UEA-53" value="&lt;div&gt;Parents&lt;/div&gt;" style="shape=umlActor;verticalLabelPosition=bottom;verticalAlign=top;html=1;outlineConnect=0;" vertex="1" parent="1">
          <mxGeometry x="810" y="590" width="30" height="60" as="geometry" />
        </mxCell>
        <mxCell id="49wvghhfvZrDiYYT6UEA-54" value="Receive Reports" style="ellipse;whiteSpace=wrap;html=1;" vertex="1" parent="1">
          <mxGeometry x="600" y="660" width="95" height="35" as="geometry" />
        </mxCell>
        <mxCell id="49wvghhfvZrDiYYT6UEA-55" value="Contact Teacher" style="ellipse;whiteSpace=wrap;html=1;" vertex="1" parent="1">
          <mxGeometry x="600" y="575" width="95" height="35" as="geometry" />
        </mxCell>
        <mxCell id="49wvghhfvZrDiYYT6UEA-56" value="View Timetable" style="ellipse;whiteSpace=wrap;html=1;" vertex="1" parent="1">
          <mxGeometry x="600" y="615" width="95" height="35" as="geometry" />
        </mxCell>
        <mxCell id="49wvghhfvZrDiYYT6UEA-58" value="Event Notifications" style="ellipse;whiteSpace=wrap;html=1;" vertex="1" parent="1">
          <mxGeometry x="600" y="700" width="95" height="35" as="geometry" />
        </mxCell>
        <mxCell id="49wvghhfvZrDiYYT6UEA-59" value="Contact Mentors" style="ellipse;whiteSpace=wrap;html=1;" vertex="1" parent="1">
          <mxGeometry x="600" y="740" width="95" height="35" as="geometry" />
        </mxCell>
        <mxCell id="49wvghhfvZrDiYYT6UEA-60" value="" style="endArrow=none;html=1;rounded=0;entryX=0.079;entryY=0.209;entryDx=0;entryDy=0;entryPerimeter=0;" edge="1" parent="1" target="49wvghhfvZrDiYYT6UEA-38">
          <mxGeometry width="50" height="50" relative="1" as="geometry">
            <mxPoint x="140" y="340" as="sourcePoint" />
            <mxPoint x="420" y="469" as="targetPoint" />
          </mxGeometry>
        </mxCell>
        <mxCell id="49wvghhfvZrDiYYT6UEA-61" value="" style="endArrow=none;html=1;rounded=0;entryX=0;entryY=0.5;entryDx=0;entryDy=0;exitX=1;exitY=0.3333333333333333;exitDx=0;exitDy=0;exitPerimeter=0;" edge="1" parent="1" source="49wvghhfvZrDiYYT6UEA-2" target="49wvghhfvZrDiYYT6UEA-39">
          <mxGeometry width="50" height="50" relative="1" as="geometry">
            <mxPoint x="135" y="390.5" as="sourcePoint" />
            <mxPoint x="420" y="484.5" as="targetPoint" />
          </mxGeometry>
        </mxCell>
        <mxCell id="49wvghhfvZrDiYYT6UEA-62" value="" style="endArrow=none;html=1;rounded=0;entryX=0.021;entryY=0.268;entryDx=0;entryDy=0;entryPerimeter=0;exitX=1;exitY=0.3333333333333333;exitDx=0;exitDy=0;exitPerimeter=0;" edge="1" parent="1" source="49wvghhfvZrDiYYT6UEA-2" target="49wvghhfvZrDiYYT6UEA-40">
          <mxGeometry width="50" height="50" relative="1" as="geometry">
            <mxPoint x="135" y="430.5" as="sourcePoint" />
            <mxPoint x="420" y="524.5" as="targetPoint" />
          </mxGeometry>
        </mxCell>
        <mxCell id="49wvghhfvZrDiYYT6UEA-63" value="" style="endArrow=none;html=1;rounded=0;entryX=0;entryY=0.5;entryDx=0;entryDy=0;exitX=1;exitY=0.3333333333333333;exitDx=0;exitDy=0;exitPerimeter=0;" edge="1" parent="1" source="49wvghhfvZrDiYYT6UEA-2" target="49wvghhfvZrDiYYT6UEA-41">
          <mxGeometry width="50" height="50" relative="1" as="geometry">
            <mxPoint x="100" y="430.5" as="sourcePoint" />
            <mxPoint x="385" y="524.5" as="targetPoint" />
          </mxGeometry>
        </mxCell>
        <mxCell id="49wvghhfvZrDiYYT6UEA-64" value="" style="endArrow=none;html=1;rounded=0;entryX=0;entryY=0.3333333333333333;entryDx=0;entryDy=0;entryPerimeter=0;exitX=1;exitY=1;exitDx=0;exitDy=0;" edge="1" parent="1" source="49wvghhfvZrDiYYT6UEA-45" target="49wvghhfvZrDiYYT6UEA-42">
          <mxGeometry width="50" height="50" relative="1" as="geometry">
            <mxPoint x="710" y="325" as="sourcePoint" />
            <mxPoint x="760" y="275" as="targetPoint" />
          </mxGeometry>
        </mxCell>
        <mxCell id="49wvghhfvZrDiYYT6UEA-65" value="" style="endArrow=none;html=1;rounded=0;exitX=0.907;exitY=0.815;exitDx=0;exitDy=0;exitPerimeter=0;" edge="1" parent="1" source="49wvghhfvZrDiYYT6UEA-46">
          <mxGeometry width="50" height="50" relative="1" as="geometry">
            <mxPoint x="690" y="210" as="sourcePoint" />
            <mxPoint x="810" y="290" as="targetPoint" />
          </mxGeometry>
        </mxCell>
        <mxCell id="49wvghhfvZrDiYYT6UEA-66" value="" style="endArrow=none;html=1;rounded=0;exitX=1;exitY=0.5;exitDx=0;exitDy=0;" edge="1" parent="1" source="49wvghhfvZrDiYYT6UEA-47">
          <mxGeometry width="50" height="50" relative="1" as="geometry">
            <mxPoint x="681" y="220" as="sourcePoint" />
            <mxPoint x="810" y="290" as="targetPoint" />
          </mxGeometry>
        </mxCell>
        <mxCell id="49wvghhfvZrDiYYT6UEA-68" value="" style="endArrow=none;html=1;rounded=0;exitX=1;exitY=0.5;exitDx=0;exitDy=0;" edge="1" parent="1" source="49wvghhfvZrDiYYT6UEA-48">
          <mxGeometry width="50" height="50" relative="1" as="geometry">
            <mxPoint x="695" y="276" as="sourcePoint" />
            <mxPoint x="810" y="290" as="targetPoint" />
          </mxGeometry>
        </mxCell>
        <mxCell id="49wvghhfvZrDiYYT6UEA-69" value="" style="endArrow=none;html=1;rounded=0;exitX=1;exitY=0.5;exitDx=0;exitDy=0;entryX=0;entryY=0.3333333333333333;entryDx=0;entryDy=0;entryPerimeter=0;" edge="1" parent="1" source="49wvghhfvZrDiYYT6UEA-49" target="49wvghhfvZrDiYYT6UEA-42">
          <mxGeometry width="50" height="50" relative="1" as="geometry">
            <mxPoint x="715" y="262" as="sourcePoint" />
            <mxPoint x="830" y="310" as="targetPoint" />
          </mxGeometry>
        </mxCell>
        <mxCell id="49wvghhfvZrDiYYT6UEA-70" value="" style="endArrow=none;html=1;rounded=0;exitX=0.958;exitY=0.401;exitDx=0;exitDy=0;exitPerimeter=0;entryX=0;entryY=0.3333333333333333;entryDx=0;entryDy=0;entryPerimeter=0;" edge="1" parent="1" source="49wvghhfvZrDiYYT6UEA-50" target="49wvghhfvZrDiYYT6UEA-42">
          <mxGeometry width="50" height="50" relative="1" as="geometry">
            <mxPoint x="725" y="272" as="sourcePoint" />
            <mxPoint x="840" y="320" as="targetPoint" />
          </mxGeometry>
        </mxCell>
        <mxCell id="49wvghhfvZrDiYYT6UEA-71" value="" style="endArrow=none;html=1;rounded=0;exitX=1;exitY=0.5;exitDx=0;exitDy=0;entryX=0;entryY=0.3333333333333333;entryDx=0;entryDy=0;entryPerimeter=0;" edge="1" parent="1" source="49wvghhfvZrDiYYT6UEA-51" target="49wvghhfvZrDiYYT6UEA-42">
          <mxGeometry width="50" height="50" relative="1" as="geometry">
            <mxPoint x="735" y="282" as="sourcePoint" />
            <mxPoint x="850" y="330" as="targetPoint" />
          </mxGeometry>
        </mxCell>
        <mxCell id="49wvghhfvZrDiYYT6UEA-72" value="" style="endArrow=none;html=1;rounded=0;exitX=0.98;exitY=0.429;exitDx=0;exitDy=0;exitPerimeter=0;" edge="1" parent="1" source="49wvghhfvZrDiYYT6UEA-52">
          <mxGeometry width="50" height="50" relative="1" as="geometry">
            <mxPoint x="745" y="292" as="sourcePoint" />
            <mxPoint x="810" y="290" as="targetPoint" />
          </mxGeometry>
        </mxCell>
        <mxCell id="49wvghhfvZrDiYYT6UEA-73" value="" style="endArrow=none;html=1;rounded=0;exitX=0.914;exitY=0.253;exitDx=0;exitDy=0;exitPerimeter=0;entryX=0;entryY=0.3333333333333333;entryDx=0;entryDy=0;entryPerimeter=0;" edge="1" parent="1" source="49wvghhfvZrDiYYT6UEA-55" target="49wvghhfvZrDiYYT6UEA-53">
          <mxGeometry width="50" height="50" relative="1" as="geometry">
            <mxPoint x="690" y="570" as="sourcePoint" />
            <mxPoint x="740" y="520" as="targetPoint" />
          </mxGeometry>
        </mxCell>
        <mxCell id="49wvghhfvZrDiYYT6UEA-74" value="" style="endArrow=none;html=1;rounded=0;exitX=0.943;exitY=0.332;exitDx=0;exitDy=0;exitPerimeter=0;entryX=0;entryY=0.3333333333333333;entryDx=0;entryDy=0;entryPerimeter=0;" edge="1" parent="1" source="49wvghhfvZrDiYYT6UEA-56" target="49wvghhfvZrDiYYT6UEA-53">
          <mxGeometry width="50" height="50" relative="1" as="geometry">
            <mxPoint x="687" y="624" as="sourcePoint" />
            <mxPoint x="810" y="650" as="targetPoint" />
          </mxGeometry>
        </mxCell>
        <mxCell id="49wvghhfvZrDiYYT6UEA-75" value="" style="endArrow=none;html=1;rounded=0;exitX=0.936;exitY=0.347;exitDx=0;exitDy=0;exitPerimeter=0;entryX=0;entryY=0.3333333333333333;entryDx=0;entryDy=0;entryPerimeter=0;" edge="1" parent="1" source="49wvghhfvZrDiYYT6UEA-54" target="49wvghhfvZrDiYYT6UEA-53">
          <mxGeometry width="50" height="50" relative="1" as="geometry">
            <mxPoint x="707" y="604" as="sourcePoint" />
            <mxPoint x="830" y="630" as="targetPoint" />
          </mxGeometry>
        </mxCell>
        <mxCell id="49wvghhfvZrDiYYT6UEA-76" value="" style="endArrow=none;html=1;rounded=0;exitX=1;exitY=0.5;exitDx=0;exitDy=0;" edge="1" parent="1" source="49wvghhfvZrDiYYT6UEA-58">
          <mxGeometry width="50" height="50" relative="1" as="geometry">
            <mxPoint x="717" y="614" as="sourcePoint" />
            <mxPoint x="810" y="610" as="targetPoint" />
          </mxGeometry>
        </mxCell>
        <mxCell id="49wvghhfvZrDiYYT6UEA-77" value="" style="endArrow=none;html=1;rounded=0;exitX=0.914;exitY=0.169;exitDx=0;exitDy=0;exitPerimeter=0;entryX=0;entryY=0.3333333333333333;entryDx=0;entryDy=0;entryPerimeter=0;" edge="1" parent="1" source="49wvghhfvZrDiYYT6UEA-59" target="49wvghhfvZrDiYYT6UEA-53">
          <mxGeometry width="50" height="50" relative="1" as="geometry">
            <mxPoint x="727" y="624" as="sourcePoint" />
            <mxPoint x="850" y="650" as="targetPoint" />
          </mxGeometry>
        </mxCell>
        <mxCell id="49wvghhfvZrDiYYT6UEA-78" value="" style="endArrow=none;html=1;rounded=0;exitX=0.936;exitY=0.701;exitDx=0;exitDy=0;exitPerimeter=0;" edge="1" parent="1" source="49wvghhfvZrDiYYT6UEA-26">
          <mxGeometry width="50" height="50" relative="1" as="geometry">
            <mxPoint x="650" y="550" as="sourcePoint" />
            <mxPoint x="810" y="610" as="targetPoint" />
          </mxGeometry>
        </mxCell>
      </root>
    </mxGraphModel>
  </diagram>
</mxfile>
